PathFileType	4	(X/Y/Z)	OpenSim_Sub01_EMGStiffKnee_Magnet.trc
DataRate	CameraRate	NumFrames	NumMarkers	Units	OrigDataRate	OrigDataStartFrame	OrigNumFrames
100	100	23	8	m	100	3480	5567
Frame#	Time	torso_imu_offset_imu	pelvis_imu_offset_imu	tibia_r_imu_offset_imu	femur_r_imu_offset_imu	tibia_l_imu_offset_imu	femur_l_imu_offset_imu	toes_r_imu_offset_imu	toes_l_imu_offset_imu
				X1	Y1	Z1	X2	Y2	Z2	X3	Y3	Z3	X4	Y4	Z4	X5	Y5	Z5	X6	Y6	Z6	X7	Y7	Z7	X8		Y8	Z8	

3480	34.79000000	-0.92178056	-0.06568259	0.11115738	-0.67992633	0.02142956	-0.63584680	-0.28837286	-0.76225726	-0.03894853	-0.58464022	-0.57505147	0.09714867	-0.66061471	0.40844393	0.18472505	-0.50427335	-0.08470341	0.30051227	-0.73001425	-0.15654759	-0.08414130	-0.65844768	-0.14885525	-0.41828622
3481	34.80000000	-0.91880372	-0.06876703	0.10858340	-0.68031703	0.02439294	-0.63235031	-0.26863774	-0.76661212	-0.04647660	-0.59212335	-0.56784276	0.09465420	-0.65592924	0.41541506	0.19390928	-0.50592466	-0.08376550	0.29777080	-0.73286235	-0.16207556	-0.04856930	-0.66437269	-0.14841607	-0.41038132
3482	34.81000000	-0.91748988	-0.07245884	0.10575707	-0.68269088	0.02816661	-0.62882230	-0.24918549	-0.77042206	-0.05371935	-0.60130900	-0.55908979	0.09154115	-0.65177670	0.42125431	0.20136367	-0.50675326	-0.08165107	0.29418788	-0.73620119	-0.17108510	-0.00945449	-0.67105787	-0.14873933	-0.40576308
3483	34.82000000	-0.91899819	-0.07616253	0.10445571	-0.68852091	0.03122977	-0.62445994	-0.23190512	-0.77545027	-0.05693640	-0.61217663	-0.54891591	0.08673202	-0.64767821	0.42527342	0.20410612	-0.50466769	-0.07869061	0.29472405	-0.74042108	-0.18195883	0.03060649	-0.67693059	-0.15013442	-0.40008672
3484	34.83000000	-0.92212544	-0.07909824	0.10471972	-0.69631813	0.03348424	-0.62015975	-0.21627612	-0.78155012	-0.05470604	-0.62379503	-0.53796788	0.08164554	-0.64393198	0.42831472	0.20370236	-0.50010520	-0.07413911	0.29961511	-0.74381232	-0.19364465	0.06966999	-0.68098708	-0.15166936	-0.39260237
3485	34.84000000	-0.92385086	-0.08034478	0.10525278	-0.70231420	0.03592665	-0.61812566	-0.19992384	-0.78710521	-0.04739202	-0.63453240	-0.52729500	0.07962069	-0.64143387	0.43239805	0.20521740	-0.49544909	-0.06642451	0.30546048	-0.74305023	-0.20552533	0.10629484	-0.68266202	-0.15145739	-0.38532705
3486	34.85000000	-0.92242592	-0.07977731	0.10519663	-0.70382928	0.03917867	-0.61950448	-0.18147025	-0.79104359	-0.03622781	-0.64326941	-0.51749098	0.08216906	-0.64036984	0.43860015	0.21160901	-0.49243405	-0.05510883	0.30970128	-0.73682038	-0.21662078	0.13872781	-0.68218434	-0.14866125	-0.37979994
3487	34.86000000	-0.92002147	-0.07964806	0.10509681	-0.70159210	0.04266412	-0.62220205	-0.16264039	-0.79402340	-0.02489462	-0.65046304	-0.50776501	0.08522561	-0.63877077	0.44510546	0.21930602	-0.49071869	-0.04318722	0.31255767	-0.72990520	-0.22483951	0.16425009	-0.68210943	-0.14563523	-0.37592891
3488	34.87000000	-0.91935508	-0.08246080	0.10570193	-0.69697293	0.04566509	-0.62367268	-0.14568991	-0.79695343	-0.01728720	-0.65687755	-0.49713282	0.08404067	-0.63444647	0.44973060	0.22381646	-0.48957685	-0.03408171	0.31473705	-0.72782874	-0.22801942	0.18021663	-0.68517539	-0.14514265	-0.37331586
3489	34.88000000	-0.92048300	-0.08790712	0.10691525	-0.69151140	0.04865617	-0.62358111	-0.13223012	-0.79970666	-0.01372357	-0.66351389	-0.48554539	0.07904765	-0.62786062	0.45279062	0.22493243	-0.48826846	-0.02810476	0.31654958	-0.73034518	-0.22601665	0.18775748	-0.69041824	-0.14723762	-0.37149771
3490	34.89000000	-0.92141331	-0.09351438	0.10798956	-0.68687732	0.05302929	-0.62329336	-0.12337610	-0.80135899	-0.01176888	-0.67155477	-0.47367341	0.07466862	-0.62151931	0.45652300	0.22574319	-0.48604310	-0.02317546	0.31799973	-0.73276860	-0.22024089	0.19090753	-0.69402534	-0.14988908	-0.36996148
3491	34.90000000	-0.92081031	-0.09750385	0.10841322	-0.68443813	0.05930790	-0.62387775	-0.11995423	-0.80131734	-0.00948888	-0.68160007	-0.46184093	0.07372743	-0.61720905	0.46213766	0.22844101	-0.48262252	-0.01763972	0.31927834	-0.73231105	-0.21204203	0.19215204	-0.69369609	-0.15150593	-0.36830982
3492	34.91000000	-0.91944481	-0.10032434	0.10842452	-0.68465283	0.06536469	-0.62538781	-0.12197098	-0.80003318	-0.00664740	-0.69250399	-0.44928698	0.07399402	-0.61442205	0.46764412	0.23230089	-0.47913231	-0.01129483	0.32115321	-0.73216367	-0.20247336	0.18914954	-0.69184059	-0.15196364	-0.36649286
3493	34.92000000	-0.91843297	-0.10280637	0.10838703	-0.68766273	0.06880327	-0.62761898	-0.12923052	-0.79811976	-0.00333427	-0.70284401	-0.43514426	0.07248450	-0.61223448	0.47066041	0.23608399	-0.47685683	-0.00426498	0.32440228	-0.73633641	-0.19258831	0.17890793	-0.69157277	-0.15143049	-0.36456784
3494	34.93000000	-0.91823143	-0.10533033	0.10846502	-0.69136843	0.07053402	-0.62931143	-0.14077770	-0.79572130	0.00017942	-0.71188724	-0.41995593	0.06891669	-0.60984421	0.47180018	0.23893337	-0.47557258	0.00244875	0.32835877	-0.74455029	-0.18426267	0.16205224	-0.69350595	-0.15039906	-0.36323399
3495	34.94000000	-0.91878896	-0.10793006	0.10866940	-0.69194727	0.07401176	-0.62839397	-0.15507330	-0.79262090	0.00348277	-0.71943174	-0.40535068	0.06508806	-0.60654306	0.47398221	0.24028672	-0.47389563	0.00717080	0.33124457	-0.75322550	-0.18000445	0.14199096	-0.69632846	-0.14961148	-0.36368403
3496	34.95000000	-0.91985551	-0.11057831	0.10912331	-0.68763092	0.08122484	-0.62404066	-0.17113278	-0.78855459	0.00570343	-0.72544911	-0.39258900	0.06270490	-0.60207294	0.47895408	0.24042100	-0.47088169	0.00895505	0.33231192	-0.75976863	-0.18121140	0.12085293	-0.69864991	-0.14970235	-0.36615983
3497	34.96000000	-0.92062910	-0.11309286	0.11029509	-0.68288715	0.08960970	-0.61918763	-0.18966440	-0.78314612	0.00460868	-0.73038603	-0.38175435	0.06304344	-0.59750581	0.48480706	0.24208447	-0.46698150	0.00907440	0.33395970	-0.76476952	-0.18593394	0.09675187	-0.69899312	-0.15096771	-0.36804025
3498	34.97000000	-0.92025262	-0.11526949	0.11265124	-0.68295697	0.09595374	-0.61725608	-0.21161212	-0.77601733	-0.00207339	-0.73477532	-0.37264666	0.06711625	-0.59407267	0.48910188	0.24815490	-0.46289791	0.00918266	0.33891312	-0.76930948	-0.19166460	0.06723492	-0.69605775	-0.15357204	-0.36642170
3499	34.98000000	-0.91857106	-0.11700389	0.11567617	-0.68739992	0.09992494	-0.61851751	-0.23676393	-0.76707205	-0.01343788	-0.73912453	-0.36407984	0.07318027	-0.59170445	0.49157487	0.25661065	-0.45924745	0.01049426	0.34607540	-0.77301761	-0.19680772	0.03247844	-0.69143026	-0.15664805	-0.36209488
3500	34.99000000	-0.91596996	-0.11826868	0.11809870	-0.69140320	0.10340832	-0.62081916	-0.26401795	-0.75643120	-0.02613489	-0.74392170	-0.35410944	0.07737235	-0.58933147	0.49363698	0.26166046	-0.45657983	0.01388484	0.35140881	-0.77440563	-0.20046968	-0.00531740	-0.68891812	-0.15853464	-0.35869346
3501	35	-0.91295944	-0.11913408	0.11917093	-0.69169603	0.10767657	-0.62245242	-0.29225151	-0.74419006	-0.03753014	-0.74953611	-0.34175050	0.07743876	-0.58617700	0.49645208	0.25992372	-0.45503250	0.01944941	0.35241001	-0.77271073	-0.20192209	-0.04427563	-0.69078417	-0.15823904	-0.35882246
3502	35.01000000	-0.91037852	-0.11995438	0.11975770	-0.68992387	0.11201366	-0.62321381	-0.32034834	-0.73035119	-0.04730255	-0.75598578	-0.32892702	0.07606995	-0.58241118	0.50032189	0.25547109	-0.45352311	0.02498937	0.35135961	-0.76941118	-0.20087370	-0.08363409	-0.69453162	-0.15681489	-0.36181298
